<?xml version="1.0" encoding="UTF-8"?>
<!DOCTYPE svg PUBLIC "-//W3C//DTD SVG 1.1//EN" "http://www.w3.org/Graphics/SVG/1.1/DTD/svg11.dtd">
<!-- Creator: CorelDRAW X7 -->
<svg xmlns="http://www.w3.org/2000/svg" xml:space="preserve" width="210mm" height="297mm" version="1.1" style="shape-rendering:geometricPrecision; text-rendering:geometricPrecision; image-rendering:optimizeQuality; fill-rule:evenodd; clip-rule:evenodd"
viewBox="0 0 21000 29700"
 xmlns:xlink="http://www.w3.org/1999/xlink">
 <defs>
  <style type="text/css">
   <![CDATA[
    .fil41 {fill:black;fill-rule:nonzero}
    .fil47 {fill:#040404;fill-rule:nonzero}
    .fil49 {fill:#0E3E4F;fill-rule:nonzero}
    .fil33 {fill:#1D1D1B;fill-rule:nonzero}
    .fil29 {fill:#AC6249;fill-rule:nonzero}
    .fil45 {fill:#355B80;fill-rule:nonzero}
    .fil39 {fill:#AC6249;fill-rule:nonzero}
    .fil34 {fill:#AC6249;fill-rule:nonzero}
    .fil37 {fill:#4E4E4D;fill-rule:nonzero}
    .fil44 {fill:#575656;fill-rule:nonzero}
    .fil31 {fill:#575756;fill-rule:nonzero}
    .fil59 {fill:#6A6A6A;fill-rule:nonzero}
    .fil30 {fill:#706F6F;fill-rule:nonzero}
    .fil55 {fill:#757575;fill-rule:nonzero}
    .fil38 {fill:#777777;fill-rule:nonzero}
    .fil32 {fill:#878787;fill-rule:nonzero}
    .fil57 {fill:#999999;fill-rule:nonzero}
    .fil62 {fill:#A1A1A1;fill-rule:nonzero}
    .fil53 {fill:#A8A8A8;fill-rule:nonzero}
    .fil58 {fill:#ABABAB;fill-rule:nonzero}
    .fil61 {fill:#B7B7B7;fill-rule:nonzero}
    .fil43 {fill:#BBBBBA;fill-rule:nonzero}
    .fil54 {fill:#BCBCBC;fill-rule:nonzero}
    .fil46 {fill:#C1C1C0;fill-rule:nonzero}
    .fil63 {fill:#CCCCCC;fill-rule:nonzero}
    .fil48 {fill:#DD9977;fill-rule:nonzero}
    .fil28 {fill:#DDDDDD;fill-rule:nonzero}
    .fil60 {fill:#E6332A;fill-rule:nonzero}
    .fil40 {fill:#E8A07C;fill-rule:nonzero}
    .fil56 {fill:#EDEDED;fill-rule:nonzero}
    .fil50 {fill:#F33849;fill-rule:nonzero}
    .fil51 {fill:#F35B69;fill-rule:nonzero}
    .fil35 {fill:#FFAF87;fill-rule:nonzero}
    .fil42 {fill:#FFBB7D;fill-rule:nonzero}
    .fil16 {fill:white;fill-rule:nonzero}
    .fil9 {fill:url(#id1)}
    .fil5 {fill:url(#id2)}
    .fil36 {fill:url(#id3)}
    .fil19 {fill:url(#id4)}
    .fil25 {fill:url(#id5)}
    .fil14 {fill:url(#id6)}
    .fil22 {fill:url(#id7)}
    .fil52 {fill:url(#id8)}
    .fil21 {fill:url(#id9)}
    .fil24 {fill:url(#id10)}
    .fil6 {fill:url(#id11)}
    .fil18 {fill:url(#id12)}
    .fil12 {fill:url(#id13)}
    .fil1 {fill:url(#id14)}
    .fil4 {fill:url(#id15)}
    .fil8 {fill:url(#id16)}
    .fil27 {fill:url(#id17)}
    .fil10 {fill:url(#id18)}
    .fil0 {fill:url(#id19)}
    .fil3 {fill:url(#id20)}
    .fil7 {fill:url(#id21)}
    .fil17 {fill:url(#id22)}
    .fil2 {fill:url(#id23)}
    .fil23 {fill:url(#id24)}
    .fil20 {fill:url(#id25)}
    .fil11 {fill:url(#id26)}
    .fil13 {fill:url(#id27)}
    .fil15 {fill:url(#id28)}
    .fil26 {fill:url(#id29)}
   ]]>
  </style>
   <clipPath id="id0" style="clip-rule:nonzero">
    <path d="M8404 7402c0,-216 66,-452 175,-669l-259 -150 1 -71 184 -107 198 115c132,-197 300,-364 481,-469 431,-248 780,-47 780,451 0,209 -62,437 -166,651l701 404 -184 107 -1 71 -638 -369c-134,204 -305,378 -492,486 -126,72 -244,107 -349,107 -255,0 -431,-204 -431,-557l0 0z"/>
   </clipPath>
  <linearGradient id="id1" gradientUnits="userSpaceOnUse" x1="7364.69" y1="14190.6" x2="8458.4" y2="13476.8">
   <stop offset="0" style="stop-opacity:1; stop-color:white"/>
   <stop offset="0.160784" style="stop-opacity:1; stop-color:#F2F2F2"/>
   <stop offset="0.490196" style="stop-opacity:1; stop-color:#E6E6E6"/>
   <stop offset="0.819608" style="stop-opacity:1; stop-color:#F2F2F2"/>
   <stop offset="1" style="stop-opacity:1; stop-color:white"/>
  </linearGradient>
  <linearGradient id="id2" gradientUnits="userSpaceOnUse" xlink:href="#id1" x1="5125.18" y1="8322.86" x2="6368.1" y2="7585.5">
  </linearGradient>
  <linearGradient id="id3" gradientUnits="userSpaceOnUse" x1="10715" y1="10997.7" x2="10844" y2="10629">
   <stop offset="0" style="stop-opacity:1; stop-color:#DDDDDD"/>
   <stop offset="0.160784" style="stop-opacity:1; stop-color:#C8C8C8"/>
   <stop offset="0.490196" style="stop-opacity:1; stop-color:#B2B2B2"/>
   <stop offset="0.819608" style="stop-opacity:1; stop-color:#C8C8C8"/>
   <stop offset="1" style="stop-opacity:1; stop-color:#DDDDDD"/>
  </linearGradient>
  <linearGradient id="id4" gradientUnits="userSpaceOnUse" xlink:href="#id1" x1="12143.5" y1="10848.3" x2="12642.4" y2="10670.1">
  </linearGradient>
  <linearGradient id="id5" gradientUnits="userSpaceOnUse" xlink:href="#id1" x1="6042.34" y1="17508.3" x2="7285.15" y2="16771">
  </linearGradient>
  <linearGradient id="id6" gradientUnits="userSpaceOnUse" xlink:href="#id1" x1="4908.28" y1="12206.3" x2="6151.09" y2="11469">
  </linearGradient>
  <linearGradient id="id7" gradientUnits="userSpaceOnUse" xlink:href="#id1" x1="4480.65" y1="15035.5" x2="5723.46" y2="14298.2">
  </linearGradient>
  <linearGradient id="id8" gradientUnits="userSpaceOnUse" xlink:href="#id3" x1="6427.61" y1="10329.4" x2="9511.96" y2="7805.27">
  </linearGradient>
  <linearGradient id="id9" gradientUnits="userSpaceOnUse" xlink:href="#id1" x1="3927.92" y1="15847.4" x2="5170.74" y2="15110.1">
  </linearGradient>
  <linearGradient id="id10" gradientUnits="userSpaceOnUse" xlink:href="#id1" x1="3927.92" y1="14854.6" x2="5170.74" y2="14117.3">
  </linearGradient>
  <linearGradient id="id11" gradientUnits="userSpaceOnUse" xlink:href="#id1" x1="4016.7" y1="8962.84" x2="5259.51" y2="8225.54">
  </linearGradient>
  <linearGradient id="id12" gradientUnits="userSpaceOnUse" xlink:href="#id1" x1="11636.3" y1="11687.9" x2="12706.6" y2="10880">
  </linearGradient>
  <linearGradient id="id13" gradientUnits="userSpaceOnUse" xlink:href="#id1" x1="7322.99" y1="13100" x2="8319.58" y2="12573.4">
  </linearGradient>
  <linearGradient id="id14" gradientUnits="userSpaceOnUse" xlink:href="#id1" x1="11395.1" y1="4666.27" x2="12314.8" y2="4120.68">
  </linearGradient>
  <linearGradient id="id15" gradientUnits="userSpaceOnUse" xlink:href="#id1" x1="4569.42" y1="9143.66" x2="5812.24" y2="8406.37">
  </linearGradient>
  <linearGradient id="id16" gradientUnits="userSpaceOnUse" xlink:href="#id1" x1="4569.42" y1="8150.88" x2="5812.24" y2="7413.58">
  </linearGradient>
  <linearGradient id="id17" gradientUnits="userSpaceOnUse" xlink:href="#id1" x1="5486.47" y1="17336.3" x2="6729.28" y2="16599">
  </linearGradient>
  <linearGradient id="id18" gradientUnits="userSpaceOnUse" xlink:href="#id1" x1="7924.39" y1="13212.1" x2="8210.69" y2="13153.6">
  </linearGradient>
  <linearGradient id="id19" gradientUnits="userSpaceOnUse" xlink:href="#id1" x1="10780.3" y1="5515.1" x2="11824.3" y2="4895.82">
  </linearGradient>
  <linearGradient id="id20" gradientUnits="userSpaceOnUse" xlink:href="#id1" x1="10817.6" y1="4500.16" x2="11786.9" y2="3925.08">
  </linearGradient>
  <linearGradient id="id21" gradientUnits="userSpaceOnUse" xlink:href="#id1" x1="5677.96" y1="7510.87" x2="6920.77" y2="6773.52">
  </linearGradient>
  <linearGradient id="id22" gradientUnits="userSpaceOnUse" xlink:href="#id1" x1="12105.1" y1="11864.7" x2="12919.5" y2="11463.9">
  </linearGradient>
  <linearGradient id="id23" gradientUnits="userSpaceOnUse" xlink:href="#id1" x1="10555.5" y1="5100.43" x2="11375.9" y2="4728.8">
  </linearGradient>
  <linearGradient id="id24" gradientUnits="userSpaceOnUse" xlink:href="#id1" x1="3396.94" y1="15660.7" x2="4590.04" y2="14952.9">
  </linearGradient>
  <linearGradient id="id25" gradientUnits="userSpaceOnUse" xlink:href="#id1" x1="12596.9" y1="10512.8" x2="12880.2" y2="10448.8">
  </linearGradient>
  <linearGradient id="id26" gradientUnits="userSpaceOnUse" xlink:href="#id1" x1="6775.64" y1="13940.5" x2="8018.51" y2="13203.1">
  </linearGradient>
  <linearGradient id="id27" gradientUnits="userSpaceOnUse" xlink:href="#id1" x1="5461.01" y1="12387.2" x2="6703.82" y2="11649.9">
  </linearGradient>
  <linearGradient id="id28" gradientUnits="userSpaceOnUse" xlink:href="#id1" x1="5461.01" y1="11394.4" x2="6703.82" y2="10657.1">
  </linearGradient>
  <linearGradient id="id29" gradientUnits="userSpaceOnUse" xlink:href="#id1" x1="6595.06" y1="16696.3" x2="7837.88" y2="15959">
  </linearGradient>
 </defs>
 <g id="Layer_x0020_1">
  <metadata id="CorelCorpID_0Corel-Layer"/>
  <path class="fil0" d="M10790 5724c-12,0 -20,-10 -20,-26l0 -370c0,-23 16,-51 36,-63l992 -573c6,-3 12,-5 17,-5 12,0 20,10 20,26l0 337c-42,7 -84,18 -125,35 -128,54 -228,152 -283,276l-621 358c-6,3 -11,5 -16,5z"/>
  <path class="fil1" d="M11343 4912c-12,0 -21,-10 -21,-26l0 -370c0,-23 17,-51 37,-63l992 -573c6,-3 12,-5 16,-5 12,0 21,10 21,26l0 370c0,23 -17,51 -37,63l-992 573c-6,3 -11,5 -16,5z"/>
  <path class="fil2" d="M10654 5314l-2 -453 591 -341c5,-3 11,-5 16,-5 12,0 20,10 20,26l0 370c0,23 -16,51 -36,63l-589 340z"/>
  <path class="fil3" d="M10790 4731c-12,0 -20,-10 -20,-26l0 -370c0,-23 16,-51 36,-63l992 -573c6,-3 12,-5 17,-5 12,0 20,10 20,26l0 370c0,23 -16,52 -37,63l-992 573c-6,3 -11,5 -16,5z"/>
  <path class="fil4" d="M4678 9293c-12,0 -20,-9 -20,-26l0 -369c0,-23 17,-52 37,-63l992 -573c6,-4 11,-5 16,-5 12,0 20,9 20,26l0 369c0,24 -16,52 -36,64l-992 572c-6,4 -12,5 -17,5z"/>
  <path class="fil5" d="M5234 8473c-12,0 -20,-10 -20,-27l0 -369c0,-23 16,-52 37,-63l992 -573c6,-4 11,-5 16,-5 12,0 20,9 20,26l0 369c0,24 -16,52 -36,64l-992 573c-6,3 -12,5 -17,5z"/>
  <path class="fil6" d="M4126 9113c-12,0 -20,-10 -20,-27l0 -369c0,-23 16,-52 36,-63l992 -573c6,-3 12,-5 16,-5 12,0 21,9 21,26l0 369c0,24 -17,52 -37,64l-992 573c-6,3 -11,5 -16,5z"/>
  <path class="fil7" d="M5787 7661c-12,0 -20,-10 -20,-27l0 -369c0,-23 16,-52 36,-63l992 -573c6,-4 12,-5 17,-5 12,0 20,9 20,26l0 369c0,24 -16,52 -37,64l-992 573c-6,3 -11,5 -16,5z"/>
  <path class="fil8" d="M4678 8301c-12,0 -20,-10 -20,-27l0 -369c0,-23 17,-52 37,-63l992 -573c6,-4 11,-5 16,-5 12,0 20,9 20,26l0 369c0,24 -16,52 -36,64l-992 573c-6,3 -12,5 -17,5z"/>
  <path class="fil9" d="M7437 14271c-12,0 -20,-10 -20,-26l0 -369c0,-24 17,-52 37,-64l720 -416c41,121 112,234 232,320l-952 550c-6,3 -12,5 -17,5z"/>
  <path class="fil10" d="M7993 13450c-12,0 -20,-9 -20,-26l0 -369c0,-24 16,-52 37,-64l131 -75c-18,135 -20,293 21,441l-152 88c-6,4 -12,5 -17,5z"/>
  <path class="fil11" d="M6885 14090c-12,0 -21,-9 -21,-26l0 -369c0,-24 17,-52 37,-64l992 -572c6,-4 12,-5 17,-5 11,0 20,9 20,26l0 369c0,23 -17,52 -37,63l-992 573c-6,4 -11,5 -16,5z"/>
  <path class="fil12" d="M7437 13278c-12,0 -20,-9 -20,-26l0 -369c0,-24 17,-52 37,-64l735 -424c2,71 13,130 36,168 0,0 -50,131 -78,310l-693 400c-6,4 -12,5 -17,5z"/>
  <path class="fil13" d="M5570 12537c-12,0 -20,-10 -20,-26l0 -370c0,-23 16,-51 36,-63l992 -573c6,-3 12,-5 17,-5 12,0 20,10 20,26l0 370c0,23 -16,51 -37,63l-992 573c-6,3 -11,5 -16,5z"/>
  <path class="fil14" d="M5017 12356c-12,0 -20,-9 -20,-26l0 -370c0,-23 16,-51 37,-63l992 -573c6,-3 11,-5 16,-5 12,0 20,10 20,26l0 370c0,23 -16,52 -36,63l-992 573c-6,3 -12,5 -17,5z"/>
  <path class="fil15" d="M5570 11544c-12,0 -20,-9 -20,-26l0 -370c0,-23 16,-51 36,-63l992 -573c6,-3 12,-5 17,-5 12,0 20,10 20,26l0 370c0,23 -16,52 -37,63l-992 573c-6,3 -11,5 -16,5z"/>
  <polygon class="fil16" points="12833,11686 12833,11547 12876,11662 "/>
  <path class="fil17" d="M12212 12041c-12,0 -20,-10 -20,-27l0 -369c0,-23 16,-52 36,-63l509 -294 96 259 0 139 -605 349c-6,4 -11,6 -16,6z"/>
  <path class="fil16" d="M13088 11539l-139 -373 271 -157c6,-4 12,-5 17,-5 12,0 20,9 20,26l0 369c0,24 -17,52 -37,64l-132 76z"/>
  <path class="fil18" d="M11794 11691l-155 -89 0 -138c0,-23 16,-52 36,-63l230 -133 -111 423zm267 -59l141 -535 381 -220 121 324 0 18c0,23 -16,51 -36,63l-607 350z"/>
  <path class="fil19" d="M12215 11047l11 -42 222 -128 0 -56 -151 -87 58 -218 77 -45 139 374 -343 198c-5,2 -9,4 -13,4z"/>
  <path class="fil16" d="M12833 10693l0 -453 387 -224c6,-3 12,-5 17,-5 12,0 20,10 20,26l0 370c0,23 -17,51 -37,63l-387 223z"/>
  <polygon class="fil20" points="12783,10722 12644,10349 12833,10240 12833,10693 "/>
  <path class="fil21" d="M4037 15997c-12,0 -20,-9 -20,-26l0 -369c0,-24 16,-52 36,-64l992 -573c6,-3 12,-5 17,-5 12,0 20,10 20,27l0 369c0,23 -16,52 -37,63l-992 573c-6,4 -11,5 -16,5z"/>
  <path class="fil22" d="M4590 15185c-12,0 -21,-9 -21,-26l0 -369c0,-24 17,-52 37,-64l992 -573c6,-3 12,-5 16,-5 12,0 21,10 21,27l0 369c0,23 -17,52 -37,63l-992 573c-6,3 -11,5 -16,5z"/>
  <path class="fil23" d="M3481 15825c-12,0 -20,-9 -20,-26l0 -369c0,-24 16,-52 36,-64l993 -572c5,-4 11,-6 16,-6 12,0 20,10 20,27l0 369c0,23 -16,52 -36,63l-993 573c-5,4 -11,5 -16,5z"/>
  <path class="fil24" d="M4037 15004c-12,0 -20,-9 -20,-26l0 -369c0,-24 16,-52 36,-64l992 -572c6,-4 12,-5 17,-5 12,0 20,9 20,26l0 369c0,24 -16,52 -37,63l-992 573c-6,4 -11,5 -16,5z"/>
  <path class="fil25" d="M6151 17658c-12,0 -20,-10 -20,-26l0 -370c0,-23 16,-51 37,-63l992 -573c6,-3 11,-5 16,-5 12,0 20,10 20,26l0 370c0,23 -16,52 -36,63l-992 573c-6,3 -12,5 -17,5z"/>
  <path class="fil26" d="M6704 16846c-12,0 -20,-10 -20,-26l0 -370c0,-23 16,-51 36,-63l993 -573c5,-3 11,-5 16,-5 12,0 20,10 20,26l0 370c0,23 -16,52 -36,63l-993 573c-6,3 -11,5 -16,5z"/>
  <path class="fil27" d="M5596 17486c-12,0 -21,-10 -21,-26l0 -369c0,-24 17,-52 37,-64l992 -573c6,-3 11,-5 16,-5 12,0 21,10 21,26l0 370c0,23 -17,52 -37,63l-992 573c-6,3 -12,5 -16,5z"/>
  <path class="fil28" d="M9371 21835l-116 -67c4,2 8,3 12,4 11,3 21,4 31,4 54,0 103,-36 117,-90l700 -2662 4177 -2410c40,18 83,35 128,50l223 1525c15,193 29,389 42,581l-5314 3065zm-150 -86l-1917 -1103 111 -64 -5 20c-17,65 22,131 86,147 10,3 20,4 30,4 54,0 103,-36 117,-90l67 -251 2110 -1218 -639 2431c-3,10 -4,20 -4,30 0,36 17,71 44,94zm6248 -3431c-8,-27 -17,-53 -26,-78 84,-491 46,-1019 1,-1468 9,-27 17,-54 24,-83l854 492 120 322c18,49 64,79 113,79 15,0 29,-3 43,-8 62,-23 94,-93 71,-155l-19 -49 231 133 -1412 815z"/>
  <path class="fil29" d="M10554 9638l71 -320c0,0 282,-1067 291,-1301 0,0 -156,-169 -286,-130 -192,209 -371,790 -593,1294 -46,126 -1083,270 -1196,415 -33,41 584,572 636,592 179,65 1012,-371 1077,-550z"/>
  <path class="fil30" d="M14784 16559c14,0 29,-2 42,-7 63,-24 95,-93 71,-155l-3605 -9678c-23,-63 -93,-94 -155,-71 -63,23 -95,93 -71,155l3605 9678c18,48 64,78 113,78z"/>
  <path class="fil30" d="M9908 11762c21,0 42,-5 61,-16l2541 -1468c58,-33 78,-107 45,-165 -34,-57 -107,-77 -165,-44l-2542 1468c-58,33 -78,107 -45,165 23,38 64,60 105,60z"/>
  <path class="fil30" d="M11679 12785c21,0 42,-6 61,-17l2542 -1467c57,-34 77,-107 44,-165 -34,-58 -107,-78 -165,-44l-2542 1467c-58,34 -78,107 -44,165 22,39 63,61 104,61z"/>
  <path class="fil30" d="M8902 15923c20,0 41,-5 60,-16l4567 -2614c58,-34 78,-108 44,-165 -33,-58 -107,-78 -165,-45l-4567 2615c-58,33 -78,107 -44,165 22,38 63,60 105,60z"/>
  <path class="fil30" d="M10673 16946c20,0 41,-6 60,-17l4567 -2614c58,-33 78,-107 45,-165 -34,-58 -107,-78 -165,-44l-4568 2614c-58,34 -77,107 -44,165 22,39 63,61 105,61z"/>
  <path class="fil31" d="M9298 21776c54,0 103,-36 117,-90l3962 -15065c110,-419 -76,-863 -451,-1080l-737 -425c-148,-85 -322,-96 -479,-31 -156,66 -271,198 -314,363l-3986 15154c-17,65 22,131 86,147 64,17 131,-21 147,-86l3987 -15155c24,-91 87,-164 174,-200 86,-36 183,-30 264,17l737 426c281,162 421,495 339,809l-3963 15065c-17,64 22,130 86,147 11,3 21,4 31,4z"/>
  <polygon class="fil31" points="9234,13371 11061,14426 11588,14122 11588,14067 9760,13067 9234,13316 "/>
  <polygon class="fil32" points="9234,13316 11061,14371 11588,14067 9760,13012 "/>
  <polygon class="fil31" points="9521,12289 11348,13344 11874,13040 11874,12985 10047,11985 9521,12234 "/>
  <polygon class="fil32" points="9521,12234 11348,13289 11874,12985 10047,11930 "/>
  <polygon class="fil31" points="8947,14453 10775,15508 11301,15204 11301,15148 9474,14149 8947,14397 "/>
  <polygon class="fil32" points="8947,14397 10775,15452 11301,15148 9474,14093 "/>
  <polygon class="fil31" points="9234,13371 11061,14426 11588,14122 11588,14067 9760,13067 9234,13316 "/>
  <polygon class="fil32" points="9234,13316 11061,14371 11588,14067 9760,13012 "/>
  <polygon class="fil31" points="8661,15534 10488,16589 11014,16286 11014,16230 9187,15231 8661,15479 "/>
  <polygon class="fil32" points="8661,15479 10488,16534 11014,16230 9187,15175 "/>
  <polygon class="fil31" points="8374,16616 10201,17671 10727,17367 10727,17312 8900,16312 8374,16561 "/>
  <polygon class="fil32" points="8374,16561 10201,17616 10727,17312 8900,16257 "/>
  <polygon class="fil31" points="8661,15534 10488,16589 11014,16286 11014,16230 9187,15231 8661,15479 "/>
  <polygon class="fil32" points="8661,15479 10488,16534 11014,16230 9187,15175 "/>
  <polygon class="fil31" points="8087,17698 9914,18753 10440,18449 10440,18394 8613,17394 8087,17643 "/>
  <polygon class="fil32" points="8087,17643 9914,18698 10440,18394 8613,17339 "/>
  <polygon class="fil31" points="7800,18780 9628,19835 10154,19531 10154,19476 8326,18476 7800,18724 "/>
  <polygon class="fil32" points="7800,18724 9628,19779 10154,19476 8326,18421 "/>
  <polygon class="fil31" points="8087,17698 9914,18753 10440,18449 10440,18394 8613,17394 8087,17643 "/>
  <polygon class="fil32" points="8087,17643 9914,18698 10440,18394 8613,17339 "/>
  <polygon class="fil31" points="7514,19861 9341,20917 9867,20613 9867,20557 8040,19558 7514,19806 "/>
  <polygon class="fil32" points="7514,19806 9341,20861 9867,20557 8040,19502 "/>
  <polygon class="fil31" points="9808,11207 11635,12262 12161,11959 12161,11903 10334,10904 9808,11152 "/>
  <polygon class="fil32" points="9808,11152 11635,12207 12161,11903 10334,10848 "/>
  <polygon class="fil31" points="10094,10126 11922,11181 12448,10877 12448,10821 10621,9822 10094,10070 "/>
  <polygon class="fil32" points="10094,10070 11922,11125 12448,10821 10621,9766 "/>
  <polygon class="fil31" points="10381,9044 12208,10099 12735,9795 12735,9740 10907,8740 10381,8988 "/>
  <polygon class="fil32" points="10381,8988 12208,10043 12735,9740 10907,8685 "/>
  <polygon class="fil31" points="10668,7962 12495,9017 13490,8446 13490,8391 11663,7391 10668,7907 "/>
  <polygon class="fil32" points="10668,7907 12495,8962 13490,8391 11663,7336 "/>
  <path class="fil30" d="M16555 17582c15,0 29,-3 43,-8 62,-23 94,-93 71,-155l-3606 -9677c-23,-63 -93,-94 -155,-71 -63,23 -95,92 -71,155l3605 9677c18,49 64,79 113,79z"/>
  <path class="fil31" d="M9298 21776c54,0 103,-36 117,-90l3750 -14249c17,-64 -22,-130 -86,-147 -65,-17 -131,22 -148,86l-3750 14249c-17,64 22,130 86,147 11,3 21,4 31,4z"/>
  <path class="fil33" d="M10409 17051c102,63 99,160 -7,216l-599 321c-105,56 -273,51 -375,-13 -102,-63 -98,-160 7,-216l599 -321c106,-56 274,-50 375,13z"/>
  <path class="fil33" d="M9376 16783l555 147c337,-78 559,35 553,226l-1130 300 22 -673z"/>
  <path class="fil29" d="M9175 14928l-5 9 5 -9zm28 134c9,9 20,17 31,24 22,13 45,24 69,33 145,60 301,91 458,90 33,0 74,-2 115,-8 85,-13 170,-43 183,-107 36,-39 350,-1790 335,-1957 -14,-167 -128,-453 -289,-498 -133,-37 -274,20 -395,87 -87,47 -184,311 -238,393 -48,72 -261,1176 -309,1844l-3 22c3,29 21,57 43,77z"/>
  <path class="fil33" d="M10129 15299c92,77 75,173 -38,214l-638 231c-113,41 -278,11 -370,-66 -92,-77 -75,-172 38,-213l639 -232c112,-40 278,-11 369,66z"/>
  <path class="fil33" d="M9145 14887l528 224c345,-28 548,115 515,303l-1161 136 118 -663z"/>
  <path class="fil34" d="M8428 13731l93 65 610 1044 18 28 719 -245 146 -50 -410 -1223 27 -102 96 -357 -26 -31 -309 -393 -157 -199 -506 355 -504 -60c0,0 -318,823 203,1168z"/>
  <path class="fil34" d="M10057 16744c195,67 227,230 72,365 -154,135 -437,191 -631,125 -194,-66 -227,-229 -72,-365 154,-135 437,-191 631,-125z"/>
  <path class="fil34" d="M9331 17078l790 -41c89,-42 89,-38 103,-137 8,-55 -36,-720 -84,-1320 -40,-465 -80,-889 -104,-958 -6,-17 -13,-33 -22,-49 -46,-92 -127,-163 -226,-198 -39,-14 -82,-22 -124,-23 -138,-5 -261,85 -365,179 -72,66 -130,199 -164,292l-4 17c-17,185 95,1597 200,2238z"/>
  <path class="fil34" d="M9847 10480c8,106 63,197 143,255 63,46 142,71 225,65l210 -14 1023 -68 84 -6c47,-3 91,-14 131,-35 103,-51 176,-152 188,-268 3,-21 3,-41 2,-63 -2,-20 -5,-41 -10,-60 -19,-75 -63,-141 -121,-187 -64,-51 -147,-80 -235,-73l-55 4 -28 2 -46 3 -939 -20 -279 19 -44 3c-168,11 -228,218 -247,381 -2,21 -2,41 -2,62z"/>
  <path class="fil34" d="M8225 12563c385,225 753,361 1103,372 136,5 268,-9 399,-44 199,-70 223,-326 389,-708 67,-154 173,-802 210,-980 32,-143 71,-278 104,-417 14,-57 28,-115 39,-173 3,-17 -1,-38 -8,-61 -11,-35 -28,-71 -29,-98 -8,-119 -128,-254 -208,-337 -26,-29 -55,-57 -84,-83 -114,-107 -236,-203 -360,-296 -311,-234 -539,-213 -762,-204 -282,10 -394,291 -444,528 -141,644 -196,1121 -278,1565 -53,289 -166,782 -71,936z"/>
  <path class="fil35" d="M12419 8755c17,-47 34,-95 63,-135 29,-41 97,-204 172,-178 -24,90 -63,219 -33,235 49,28 93,67 143,39 91,-51 69,-51 141,-284 0,0 85,-20 97,109 7,79 48,382 12,453 -51,102 -253,316 -333,399l-14 13c-171,-33 -296,-114 -300,-288 -3,-97 18,-272 52,-363z"/>
  <path class="fil34" d="M11201 10390c0,47 9,93 28,137l7 11c20,42 50,83 91,116 37,31 78,52 121,64 127,38 271,-1 362,-111l14 -16c0,0 187,-237 385,-504 207,-276 429,-584 471,-694 0,0 -190,-297 -326,-303 -226,121 -602,560 -950,942 -35,39 -71,77 -106,115l-18 23c-54,65 -79,143 -79,220z"/>
  <path class="fil35" d="M10727 8019c-114,-17 -107,-49 -139,-75 1,-54 19,-106 37,-157 29,-86 59,-172 106,-250 46,-78 89,-151 172,-188 -37,120 -49,202 -83,335 78,-58 149,-90 227,-149 34,-25 77,-51 115,-34 18,33 1,76 -24,104 -26,28 -60,47 -87,74 -76,77 -100,151 -172,232 -37,42 -130,112 -152,108z"/>
  <path class="fil36" d="M10405 10889l0 0c8,-34 17,-69 25,-103 0,0 0,0 0,-1l724 -47 0 0 -724 48c-8,34 -17,69 -25,103z"/>
  <polygon class="fil37" points="11154,10738 11154,10738 11240,10732 11241,10732 "/>
  <path class="fil38" d="M11544 10732c-32,0 -65,-5 -96,-14l-207 14 -1 0 208 -14 0 0c31,9 64,14 96,14 99,0 198,-43 266,-125l14 -16c0,0 27,-33 70,-89l0 0c-43,56 -70,89 -70,89l-14 16c-68,82 -167,125 -266,125z"/>
  <path class="fil39" d="M10014 14573c-46,-92 -127,-163 -226,-198l0 0 -461 -1440c0,0 0,0 1,0 17,1 34,1 50,1 119,0 234,-14 349,-45l-96 357 -27 102 410 1223z"/>
  <path class="fil39" d="M10140 15580l-263 -927 -9 -30 -80 -248 0 0c99,35 180,106 226,198l0 0c9,16 16,32 22,49 24,69 64,493 104,958z"/>
  <path class="fil39" d="M10430 10785c14,-56 28,-114 39,-172 2,-7 2,-15 1,-23 64,3 128,4 192,4 199,0 393,-13 578,-47 20,39 49,76 87,107 37,31 78,52 121,64l-208 14 -86 6 -724 47z"/>
  <path class="fil39" d="M9378 12936c-16,0 -33,0 -50,-1 -1,0 -1,0 -1,0l-46 -144c624,-347 759,-1223 771,-2231 141,14 280,25 418,30 1,8 1,16 -1,23 -11,58 -25,116 -39,172 0,1 0,1 0,1 -8,34 -17,69 -25,103 -27,104 -55,207 -79,314 -10,48 -24,128 -42,224 -3,16 -6,33 -9,50 -31,169 -70,373 -105,524 -19,80 -38,145 -54,182 -53,121 -91,229 -125,322 -6,16 -11,31 -17,46 -66,177 -121,296 -247,340l0 0c-115,31 -230,45 -349,45z"/>
  <path class="fil39" d="M11544 10732c-32,0 -65,-5 -96,-14l0 0c-43,-12 -84,-33 -121,-64 -38,-31 -67,-68 -87,-107 362,-66 694,-209 975,-476l-6 16 0 0c-2,3 -4,6 -6,8 -122,164 -238,315 -309,407 -43,56 -70,89 -70,89l-14 16c-68,82 -167,125 -266,125z"/>
  <path class="fil35" d="M9501 9014c-15,90 -31,181 -30,272 0,92 17,185 62,265 52,89 140,155 238,184 31,9 63,14 96,15 32,1 65,-2 94,-15 47,-20 79,-60 106,-104 6,-10 12,-19 17,-29 126,-226 183,-525 224,-781 6,-37 -14,-42 -17,-80 -11,-113 -65,-196 -172,-234 -107,-39 -225,-31 -336,-7 -30,7 -61,15 -88,31 -25,16 -46,38 -70,55 -30,22 -100,292 -124,428z"/>
  <path class="fil40" d="M9876 9750c-3,0 -6,0 -9,0 -31,-1 -60,-5 -89,-13 -3,-1 -5,-2 -7,-2l0 0 -7 -17c-3,-12 0,-24 2,-36 11,-54 22,-108 34,-162 3,-12 6,-23 9,-32 25,-22 48,-49 67,-83 19,-15 40,-36 59,-87 -32,227 -10,338 62,338 20,0 43,-8 70,-25 -27,44 -59,84 -106,104 -26,11 -56,15 -85,15z"/>
  <polygon class="fil35" points="9366,8935 9989,9077 9806,9884 9193,9695 "/>
  <path class="fil35" d="M9306 9612c-138,43 -154,93 -48,191 106,98 235,128 437,126 144,-2 159,-118 53,-216 -106,-98 -304,-143 -442,-101z"/>
  <path class="fil41" d="M10082 9185c-13,137 -137,43 -173,146 -138,404 -674,209 -691,44 -112,-1112 568,-1026 657,-1009 304,59 481,208 422,470 -295,-57 -199,181 -215,349z"/>
  <path class="fil35" d="M9963 9071c34,8 52,45 56,78 4,41 -6,81 -16,120 -12,49 -26,101 -60,139 -10,11 -21,20 -36,22 -22,3 -44,-13 -54,-32 -10,-19 -10,-41 -10,-62 2,-60 10,-119 24,-177 6,-23 13,-47 29,-65 16,-18 42,-30 67,-23z"/>
  <path class="fil34" d="M10328 8726c0,23 -1,47 -3,71l-4 6 -13 18c-17,24 -35,46 -53,66 -29,32 -60,59 -93,84 -11,8 -22,16 -33,23l-6 4 -15 9 -13 7c-13,8 -24,14 -35,18 -11,6 -22,10 -32,15l-20 8 -18 6 -8 3 -21 7 -19 5 -11 3c-16,4 -31,7 -47,10l-9 1c-10,2 -20,3 -30,5 -67,-41 -130,-77 -191,-109 -132,-69 -257,-117 -371,-139 -23,-4 -42,-7 -60,-9l12 -160 9 -110c5,-61 34,-118 82,-156 255,-197 530,-224 831,-50 115,89 168,213 171,364z"/>
  <path class="fil29" d="M10093 9016c0,0 -279,184 -418,290 -59,46 -165,75 -236,18l-14 -10c-54,-39 -134,-78 -221,-104l-8 -2c-62,-19 -126,-31 -185,-32 -52,-2 -100,4 -138,22l-9 -17c48,-48 181,-167 223,-212 65,-69 119,-120 136,-131 274,-167 716,194 870,178z"/>
  <path class="fil28" d="M14547 21573c-429,0 -859,-95 -1186,-284 -655,-378 -655,-991 0,-1369 327,-189 757,-283 1186,-283 70,0 141,2 211,7 0,1 0,1 0,1 16,148 33,281 53,394 19,112 41,203 66,265 14,38 59,64 120,79l0 0 16 193c0,0 -103,176 -444,413 -101,70 -110,352 211,352 1,0 2,0 3,0 126,0 497,-154 711,-287 0,-1 0,-1 0,-1 0,0 0,0 0,1 81,-51 138,-99 153,-134 -4,-151 -21,-287 -71,-374l-26 -244c70,-42 115,-97 115,-163 -3,-87 -7,-174 -10,-261 26,14 52,28 77,42 655,378 655,991 0,1369 -327,189 -756,284 -1185,284z"/>
  <path class="fil35" d="M13454 15328c-74,-55 -140,-53 -218,-27 -71,24 -112,98 -137,168 -14,39 -26,79 -53,109 -34,36 -104,61 -113,110 -9,51 38,79 83,58 94,-45 108,-81 131,-97 34,-24 87,-21 122,-43 41,-26 80,-81 93,-127l92 -151z"/>
  <path class="fil35" d="M13374 15954c-6,75 -53,129 -98,106 -13,45 -91,81 -120,22 -36,34 -93,-39 -95,-91 -3,-79 -5,-85 -6,-108 -2,-56 13,-113 21,-150 12,-52 30,-99 61,-143 78,-114 138,-239 267,-290 53,25 106,58 136,164 22,78 -4,137 -40,210 -36,72 -45,99 -47,180 -3,109 -67,129 -79,100z"/>
  <path class="fil42" d="M13454 15328c-74,-55 -140,-53 -218,-27 -71,24 -112,98 -137,168 -14,39 -26,79 -53,109 -34,36 -104,61 -113,110 -9,51 38,79 83,58 94,-45 108,-81 131,-97 34,-24 87,-21 122,-43 41,-26 80,-81 93,-127l92 -151z"/>
  <path class="fil42" d="M13374 15954c-6,75 -53,129 -98,106 -13,45 -91,81 -120,22 -36,34 -93,-39 -95,-91 -3,-79 -5,-85 -6,-108 -2,-56 13,-113 21,-150 12,-52 30,-99 61,-143 78,-114 138,-239 267,-290 53,25 106,58 136,164 22,78 -4,137 -40,210 -36,72 -45,99 -47,180 -3,109 -67,129 -79,100z"/>
  <path class="fil35" d="M13454 15328c-74,-55 -140,-53 -218,-27 -71,24 -112,98 -137,168 -14,39 -26,79 -53,109 -34,36 -104,61 -113,110 -9,51 38,79 83,58 94,-45 108,-81 131,-97 34,-24 87,-21 122,-43 41,-26 80,-81 93,-127l92 -151z"/>
  <path class="fil35" d="M13374 15954c-6,75 -53,129 -98,106 -13,45 -91,81 -120,22 -36,34 -93,-39 -95,-91 -3,-79 -5,-85 -6,-108 -2,-56 13,-113 21,-150 12,-52 30,-99 61,-143 78,-114 138,-239 267,-290 53,25 106,58 136,164 22,78 -4,137 -40,210 -36,72 -45,99 -47,180 -3,109 -67,129 -79,100z"/>
  <path class="fil34" d="M13735 13055c-75,240 -103,706 -147,1152 -237,573 -7,196 -362,1054 -29,153 295,259 360,153 302,-480 406,-478 652,-1078 112,-402 144,-634 236,-1204 113,-663 -543,-678 -739,-77z"/>
  <path class="fil43" d="M13589 15410c0,0 0,0 0,-1 45,-71 85,-131 122,-184l13 -8 -135 193z"/>
  <path class="fil44" d="M13711 15225c59,-84 109,-151 156,-214 0,1 0,2 0,2l-143 204 -13 8z"/>
  <path class="fil45" d="M13589 15409c2,-42 4,-85 9,-128 6,-69 18,-137 31,-206 36,-217 36,-217 74,-434 13,-72 105,-1091 125,-1155 6,-18 11,-31 17,-41 -31,426 -15,936 6,1317l0 0c5,92 11,176 16,249 -47,63 -97,130 -156,214 -37,53 -77,113 -122,184z"/>
  <path class="fil41" d="M14485 19439l35 322c49,88 67,224 71,374 -55,131 -696,424 -867,421 -321,0 -312,-281 -211,-352 341,-237 444,-413 444,-413l-28 -352 556 0z"/>
  <path class="fil29" d="M13943 15914l-152 1486c-8,293 -19,595 -26,877 -2,76 -4,151 -5,224 -1,44 -2,86 -3,128 -1,80 -1,157 -1,230 1,299 14,538 50,668 49,181 774,180 802,-84 10,-168 21,-336 29,-500 3,-69 7,-138 9,-205 2,-51 4,-102 5,-152 2,-67 3,-133 4,-198 2,-326 -17,-622 -74,-857 134,-480 197,-945 199,-1397l-837 -220z"/>
  <path class="fil41" d="M14780 21341c125,1 499,-153 714,-287 80,-51 138,-99 153,-134 -4,-151 -22,-287 -71,-374l-26 -244 -9 -79 -556 0 12 160 16 193c0,0 -103,176 -444,413 -101,70 -110,352 211,352z"/>
  <path class="fil34" d="M13912 16157c40,278 245,418 508,507l223 1525c22,293 43,594 64,876 6,76 12,151 18,223 3,44 7,86 11,129 7,79 15,155 22,228 16,148 33,281 53,394 19,112 41,203 66,265 14,38 59,64 120,79 115,29 287,18 428,-27 46,-14 89,-32 125,-54 70,-42 115,-97 115,-163 -7,-168 -13,-336 -22,-501 -4,-69 -7,-137 -12,-204 -3,-51 -7,-102 -10,-151 -5,-68 -11,-134 -18,-199 -31,-324 -79,-616 -160,-844 84,-491 45,-1019 1,-1468 77,-239 112,-550 36,-897l-23 -6 -256 -64 -1249 -313 -25 -7c-10,221 -3,417 -15,672z"/>
  <path class="fil34" d="M13851 14762c19,326 40,558 40,558l1 20c5,53 26,104 60,152 194,268 804,425 1193,432 67,2 127,-2 178,-10 57,-9 101,-23 134,-45 95,-60 113,-174 139,-372 23,-210 43,-404 59,-580 62,-690 76,-1131 67,-1360 -1,-44 -4,-79 -7,-107 -176,-209 -483,-427 -738,-589 -345,-156 -655,-252 -838,-232 -351,42 -331,1357 -288,2133z"/>
  <path class="fil28" d="M15655 19878c0,0 -1,0 -1,0 -3,-81 -7,-161 -11,-240 -4,-69 -7,-137 -12,-204 -3,-51 -7,-102 -10,-151 -5,-68 -11,-134 -18,-199 -27,-288 -68,-551 -134,-766l0 0c66,215 107,478 135,766 6,65 12,131 17,199 4,49 7,100 10,151 5,67 9,135 12,204 5,79 8,159 12,240zm-187 -3189l0 0c60,-226 80,-506 12,-814l-23 -6c0,0 0,0 0,0 95,-60 113,-174 139,-372 8,-70 15,-139 22,-206l0 0c-7,67 -14,136 -22,206 -26,198 -44,312 -139,372l23 6c68,308 48,588 -12,814z"/>
  <path class="fil46" d="M15469 18318c-8,-27 -17,-53 -26,-78 84,-491 45,-1019 1,-1468 9,-27 17,-55 24,-83l0 0c-7,29 -15,56 -24,83 45,449 83,977 -1,1468 9,25 18,51 26,78l0 0z"/>
  <path class="fil46" d="M15494 21054c0,-1 0,-1 0,-1 80,-50 138,-98 153,-133 -4,-151 -22,-287 -71,-374l-26 -244c70,-42 115,-97 115,-163 -4,-87 -7,-174 -11,-261 0,0 1,0 1,0 3,87 7,174 10,261 0,66 -45,121 -115,163l26 244c50,87 67,223 71,374 -15,35 -72,83 -153,134z"/>
  <path class="fil47" d="M15494 21053c-43,-230 -66,-463 -69,-697l0 0c47,-14 89,-32 125,-54l0 0 26 244c49,87 67,223 71,374 -15,35 -73,83 -153,133z"/>
  <path class="fil39" d="M15425 20356c0,-44 0,-89 0,-133 2,-96 9,-193 17,-289 13,-139 32,-278 34,-417 5,-397 -137,-779 -288,-1147 -30,-73 -61,-147 -67,-227 -3,-54 4,-108 11,-162 65,-491 78,-988 39,-1481 -11,-149 -31,-307 -120,-427 36,-48 69,-98 94,-149l0 0c12,0 23,0 34,0 53,0 101,-3 144,-10 57,-9 100,-23 134,-45l23 6c68,308 48,588 -12,814 -7,28 -15,56 -24,83 44,449 83,977 -1,1468 9,25 18,51 26,78 66,215 107,478 134,766 7,65 13,131 18,199 3,49 7,100 10,151 5,67 8,135 12,204 4,79 8,159 11,240 4,87 7,174 11,261 0,66 -45,121 -115,163l0 0c-36,22 -78,40 -125,54z"/>
  <path class="fil39" d="M15179 15924c-11,0 -22,0 -34,0 67,-116 148,-298 133,-437 -10,-94 -90,-114 -177,-114 -62,0 -128,10 -175,10 -342,-1 -682,-43 -1023,-43 -3,0 -7,0 -11,0l0 0 -1 -20c0,0 -11,-120 -24,-309 -5,-73 -11,-157 -16,-249 127,-29 255,-58 381,-86 122,-27 280,-38 373,-120 47,-42 369,-493 460,-742 145,78 407,111 551,191 57,-173 99,-330 106,-448 2,42 2,91 2,148 0,224 -15,564 -54,1034 -5,57 -10,117 -15,178 -11,117 -23,242 -37,374 -7,67 -14,136 -22,206 -26,198 -44,312 -139,372 0,0 0,0 0,0 -34,22 -77,36 -134,45 -43,7 -91,10 -144,10z"/>
  <path class="fil34" d="M15772 14077c-169,531 -291,690 -506,1048 -28,37 -55,63 -81,95l-513 -436c158,-413 307,-845 442,-1054 349,-527 896,-399 658,347z"/>
  <path class="fil35" d="M14352 12034c-58,193 -67,328 -60,530 2,58 7,118 35,169l16 23c30,39 77,64 141,64 -1,29 -5,101 -7,122 1,21 6,52 9,81 10,85 38,151 48,148 98,-28 252,-94 376,-133 66,-20 151,-54 172,-139 6,-29 38,-250 49,-277 47,-128 36,-27 156,-261 51,-101 87,-240 71,-352 -48,-342 -384,-484 -570,-450 -83,15 -155,52 -221,104 -98,77 -169,221 -215,371z"/>
  <path class="fil48" d="M14615 13004c-84,0 -137,-43 -138,-62l0 0c2,-21 6,-95 9,-121 38,-1 68,0 106,-2 138,-6 273,-66 368,-166 -9,102 -56,203 -136,267 -79,64 -151,84 -209,84z"/>
  <path class="fil49" d="M14352 14875c1,24 19,54 41,65 22,12 39,1 38,-24 -1,-24 -20,-54 -41,-65 -22,-12 -39,-1 -38,24z"/>
  <path class="fil34" d="M13756 14846c-184,147 -85,438 71,438l1162 16c203,-16 337,-202 323,-355 0,0 -195,-294 -348,-280l-1208 181z"/>
  <path class="fil50" d="M13326 15219l-130 -268c-22,-45 -3,-100 43,-122 46,-22 101,-3 123,42l130 268c21,46 3,100 -42,122 -47,23 -102,4 -124,-42z"/>
  <path class="fil51" d="M13226 14932c36,2 81,-19 100,-48 11,-16 12,-30 6,-41l-40 -63 -127 57 26 74c4,11 17,19 35,21z"/>
  <path class="fil50" d="M13197 14859c-31,-2 -42,-25 -24,-51 17,-26 57,-46 88,-43 32,2 43,25 25,51 -17,26 -57,45 -89,43z"/>
  <path class="fil51" d="M13275 14811l7 -23 -12 -28c2,8 0,17 -6,27 -15,21 -48,37 -75,35 -12,0 -21,-5 -25,-12l10 21c9,12 17,15 27,16 26,2 60,-14 74,-36z"/>
  <path class="fil50" d="M13189 14822c27,2 60,-14 75,-35 6,-10 8,-19 6,-27 -3,-9 -13,-15 -27,-16 -26,-2 -60,14 -74,36 -8,11 -9,22 -5,30 4,7 13,12 25,12z"/>
  <path class="fil31" d="M13194 14788l-193 -398c-6,-13 -2,-27 8,-32 11,-5 24,1 30,13l193 399c4,16 -30,30 -38,18z"/>
  <path class="fil31" d="M13049 14398l-5 -58 -46 -47 -40 -3 15 45 36 60c17,11 31,12 40,3z"/>
  <polygon class="fil31" points="12956,14294 12963,14355 13006,14399 13046,14402 13035,14360 12995,14297 "/>
  <path class="fil31" d="M13035 14360c-17,15 -40,15 -72,-5l43 44c17,11 32,12 40,3l-11 -42z"/>
  <path class="fil51" d="M13464 15211l-131 -269c-4,-9 -3,-22 3,-31 6,-9 14,-9 18,0l131 270c4,8 3,22 -3,30 -6,10 -14,9 -18,0z"/>
  <path class="fil51" d="M13357 15239l-131 -269c-4,-9 1,-15 10,-15 12,1 23,9 27,18l131 269c4,9 0,15 -10,15 -12,-1 -23,-9 -27,-18z"/>
  <path class="fil51" d="M13416 15238l-137 -278 9 -18c9,-4 18,-1 22,5l136 278 -8 18c-10,4 -19,2 -22,-5z"/>
  <path class="fil35" d="M13193 14942c27,44 63,100 214,21 -34,-64 -45,-92 -45,-92 0,0 84,-37 110,-41 109,-17 224,10 315,72 17,12 34,25 47,41 33,39 48,266 -19,294 -66,28 -246,76 -318,87 -9,2 -18,3 -27,4 -30,4 -60,5 -90,-1 -27,-7 -52,-20 -77,-33 -63,-34 -223,-259 -110,-352z"/>
  <path class="fil41" d="M15146 12584c-37,15 -81,9 -76,-71l34 -214 -95 -12 62 -235c24,-65 -12,-137 -79,-156 -215,-60 -407,-116 -461,-201 35,-206 335,-227 638,-62 256,167 256,352 205,595 -46,163 -126,281 -228,356z"/>
  <path class="fil35" d="M15176 12185c19,10 30,28 34,46 3,17 0,35 -5,51 -18,65 -57,122 -111,165 -12,9 -26,18 -42,15 -15,-3 -27,-15 -32,-28 -5,-13 -4,-27 -2,-40 7,-57 25,-111 53,-160 10,-17 22,-35 40,-45 18,-11 44,-14 65,-4z"/>
  <path class="fil52" d="M6337 10219l8 -1678 1047 -605 4 1253 2206 -1273 -1 353c-94,26 -186,74 -275,143 -40,32 -67,77 -78,127l-2911 1680z"/>
  <path class="fil39" d="M9248 8539c11,-50 38,-95 78,-127 89,-69 181,-117 275,-143l-1 66 -352 204z"/>
  <polygon class="fil53" points="7969,9029 7969,9100 8153,8993 8153,8922 "/>
  <polygon class="fil54" points="6499,8181 6499,8252 7969,9100 7969,9029 "/>
  <polygon class="fil55" points="6499,7968 6499,8181 7969,9029 8153,8922 "/>
  <polygon class="fil53" points="10315,7664 10315,7735 10498,7628 10499,7557 "/>
  <polygon class="fil56" points="7389,6696 7396,9189 10659,7305 10652,4812 "/>
  <polygon class="fil53" points="7691,6866 7660,6848 7848,6740 7880,6758 "/>
  <polygon class="fil54" points="7691,8043 7660,8025 7660,6848 7691,6866 "/>
  <polygon class="fil55" points="7691,6866 7880,6758 7880,7935 7691,8043 "/>
  <polygon class="fil53" points="8006,6685 7974,6667 8068,6613 8100,6631 "/>
  <polygon class="fil54" points="8006,7862 7974,7844 7974,6667 8006,6685 "/>
  <polygon class="fil55" points="8006,6685 8100,6631 8100,7808 8006,7862 "/>
  <polygon class="fil57" points="7722,8287 7660,8251 7660,8359 7723,8396 "/>
  <polygon class="fil58" points="7973,8142 7910,8106 7660,8251 7722,8287 "/>
  <polygon class="fil59" points="7722,8287 7723,8396 7973,8251 7973,8142 "/>
  <polygon class="fil57" points="7722,8546 7660,8509 7660,8618 7723,8654 "/>
  <polygon class="fil58" points="7973,8401 7910,8365 7660,8509 7722,8546 "/>
  <polygon class="fil59" points="7722,8546 7723,8654 7973,8510 7973,8401 "/>
  <polygon class="fil57" points="10284,5475 10221,5438 10222,5547 10284,5583 "/>
  <polygon class="fil58" points="10535,5330 10472,5294 10221,5438 10284,5475 "/>
  <polygon class="fil59" points="10284,5475 10284,5583 10535,5439 10535,5330 "/>
  <polygon class="fil57" points="10284,5742 10221,5705 10222,5814 10284,5850 "/>
  <polygon class="fil58" points="10535,5597 10472,5560 10221,5705 10284,5742 "/>
  <polygon class="fil59" points="10284,5742 10284,5850 10535,5706 10535,5597 "/>
  <polygon class="fil57" points="10284,6008 10221,5972 10222,6081 10284,6117 "/>
  <polygon class="fil58" points="10535,5864 10472,5827 10221,5972 10284,6008 "/>
  <polygon class="fil59" points="10284,6008 10284,6117 10535,5972 10535,5864 "/>
  <path class="fil60" d="M10154 7326c0,34 24,48 53,31l268 -155c30,-17 54,-59 54,-93 0,-35 -24,-49 -54,-32l-268 155c-29,17 -53,59 -53,94z"/>
  <polygon class="fil61" points="7389,6696 6345,6089 6352,8583 7396,9189 "/>
  <polygon class="fil16" points="10652,4812 9608,4205 6345,6089 7389,6696 "/>
  <polygon class="fil32" points="8347,8400 10021,7434 10021,5497 8347,6463 "/>
  <path class="fil56" d="M8326 8436l0 -1850 21 13 0 1801 1560 -900 20 11 -1601 925zm1717 -1142l-22 -13 0 -1784 -1674 966 0 34 -21 13 0 -57 1717 -991 0 1832z"/>
  <path class="fil62" d="M8347 8400l0 -1801 21 12 0 70 61 -35 32 19 -93 53 0 83 165 -95 32 18 -197 114 0 83 168 -97c-7,16 -14,32 -20,49l-148 85 0 83 109 -63c-5,15 -9,30 -14,45l-95 55 0 83 69 -40c-3,14 -6,28 -8,42l-60 35 0 83 45 -26c-2,13 -4,26 -5,40l-40 23 0 83 35 -21c0,8 0,15 0,22 0,5 0,10 0,15l-35 21 0 83 40 -23c1,11 2,23 4,34l-44 26 0 83 58 -34c3,11 6,22 9,32l-67 39 0 83 92 -53c4,9 9,19 14,29l-106 61 0 83 144 -83c6,9 13,17 20,25l-164 95 0 83 205 -118 0 -18c13,11 27,22 41,31l-9 5 0 83 86 -50c14,5 28,9 42,13l-128 74 0 83 205 -119 0 -27c8,0 16,0 24,0l0 0c3,0 6,0 9,0l0 9 15 -9c27,-1 54,-5 83,-11l-98 57 0 83 205 -119 0 -52c11,-4 21,-8 32,-13l0 47 206 -119 0 -46c11,-8 21,-16 32,-25l0 52 205 -118 0 -83 -97 57c28,-27 55,-56 82,-85l15 -9 0 -9c11,-12 22,-24 33,-37l0 27 205 -118 0 -21 50 29 -18 10 0 83 90 -52 23 14 -1560 900zm227 -240l-205 118 0 83 205 -118 0 -83zm0 -120l-205 118 0 83 205 -118 0 -83zm237 -17l-205 118 0 83 205 -119 0 -82zm-237 -103l-205 118 0 83 205 -119 0 -82zm1188 -446l-205 118 0 83 205 -118 0 -83zm-128 -46c14,-21 29,-41 42,-62l32 19 -74 43zm387 -147l-21 -12 0 -53 -46 27 -32 -19 78 -45 0 -82 -150 86 -32 -19 182 -105 0 -83 -164 95c7,-16 13,-33 20,-49l144 -83 0 -83 -107 62c5,-15 10,-30 14,-46l93 -53 0 -83 -68 39c4,-14 6,-28 9,-42l59 -34 0 -83 -45 26c2,-14 3,-27 5,-40l40 -23 0 -83 -36 21c0,-5 0,-10 0,-15 0,-8 0,-15 0,-22l36 -21 0 -83 -41 24c-1,-12 -3,-23 -4,-35l45 -26 0 -83 -60 35c-3,-11 -6,-22 -9,-32l69 -40 0 -83 -95 55c-5,-10 -9,-20 -14,-29l109 -63 0 -83 -148 85c-6,-9 -13,-17 -20,-25l168 -97 0 -83 -206 119 0 23c-14,-12 -30,-24 -46,-34l14 -8 0 -83 -92 54c-14,-5 -29,-9 -44,-13l136 -78 0 -83 -205 119 0 33c-8,0 -16,0 -25,0 -2,0 -5,0 -8,0l0 -15 -27 16c-28,2 -57,6 -87,13l114 -66 0 -83 -205 119 0 58c-11,4 -21,8 -32,12l0 -52 -206 119 0 52c-11,8 -21,16 -32,24l0 -57 -205 118 0 83 113 -65c-30,27 -59,57 -87,87l-26 15 0 14c-11,13 -22,25 -33,38l0 -33 -205 118 0 4 -35 -20 3 -2 0 -83 -206 119 0 7 -21 12 0 -34 1674 -966 0 1784zm-1210 -1059l-205 118 0 83 205 -118 0 -83zm1189 -446l-206 119 0 82 206 -118 0 -83zm-238 -103l-205 119 0 82 205 -118 0 -83zm238 -17l-206 119 0 83 206 -119 0 -83zm0 -120l-206 119 0 82 206 -118 0 -83zm-1426 1207l0 -13 5 3c-2,3 -3,6 -5,10zm129 -223l-28 -16 66 -39c-13,18 -25,37 -38,55z"/>
  <path class="fil31" d="M8380 6482l0 1861 1608 -928 0 -1861 -1608 928zm-66 1976l0 -2014 1740 -1005 0 2014 -1740 1005z"/>
  <polygon class="fil63" points="7271,8115 6435,7629 6276,7903 7111,8388 "/>
  <polygon class="fil61" points="7111,8388 6276,7903 6278,8526 7113,9011 "/>
  <polygon class="fil56" points="7271,8115 7111,8388 7113,9011 7273,9100 "/>
  <g style="clip-path:url(#id0)">
   <image x="8287" y="5762" width="2258" height="2228" xlink:href="Teknik_Images\Teknik_ImgID1.png"/>
  </g>
 </g>
</svg>
